<svg xmlns="http://www.w3.org/2000/svg" width="22" height="22" viewBox="0 0 22 22">
    <g data-name="Group 334562">
        <g data-name="Group 334559">
            <g data-name="Group 334558">
                <g data-name="Group 334557">
                    <path data-name="Path 341348" d="M904.534 230.674a10.989 10.989 0 1 1-9.329-10.874 11 11 0 0 1 9.329 10.874z" transform="translate(-882.534 -219.674)" style="fill:#fff"/>
                </g>
            </g>
        </g>
        <g data-name="Group 334561">
            <path data-name="Path 341349" d="M2265.649 236.134c-.993-.2-2.594-.473-3.041.462-1.367 2.368-2.152 4.845-2.742 5.908.062.036 2.785 1.615 2.977 1.709a1.633 1.633 0 0 0 2.069-.622c1.208-2.178.9-1.611 2.184-3.833a2.587 2.587 0 0 0-1.447-3.624z" transform="translate(-2249.009 -229.191)" style="fill:#ea4335"/>
            <path data-name="Path 341350" d="M2198.545 247.5c-.667-.763-1.156-2.288-.57-3.143 1.711-2.964 3.081-4.758 4.159-6.557.571.33 2.86 1.628 3.013 1.762a1.67 1.67 0 0 1 .473 2.075c-1.282 2.135-1.809 3.1-3.112 5.359a2.683 2.683 0 0 1-3.963.504z" transform="translate(-2190.495 -230.946)" style="fill:#fdbd00"/>
            <g data-name="Group 334560">
                <path data-name="Path 341351" d="M2191.544 203.195a3.459 3.459 0 0 0-2.736-.562 3.378 3.378 0 0 0-1.905 1.246 145.486 145.486 0 0 0-2.976 5.114 1.525 1.525 0 0 0 .236 1.723 18.875 18.875 0 0 0 2.153 1.239 1.392 1.392 0 0 0 1.448-.34c.106-.109 2.539-4.287 3.224-5.52a2.6 2.6 0 0 1 3.468-1.215s-2.174-1.26-2.911-1.684z" transform="translate(-2177.356 -197.763)" style="fill:#2da94f"/>
                <path data-name="Path 341352" d="M2138.167 241.507a3.459 3.459 0 0 1-1.855-2.089 3.381 3.381 0 0 1 .126-2.273c.861-1.58.855-1.588 2.063-3.614a1.525 1.525 0 0 1 1.61-.657 18.863 18.863 0 0 1 2.149 1.245 1.392 1.392 0 0 1 .429 1.424c-.042.147-1.566 2.821-2.291 4.031a2.6 2.6 0 0 0 .682 3.611s-2.178-1.253-2.914-1.678z" transform="translate(-2132.56 -226.27)" style="fill:#297aec"/>
            </g>
        </g>
    </g>
</svg>
