<svg xmlns="http://www.w3.org/2000/svg" width="44" height="13.824" viewBox="0 0 44 13.824">
    <g data-name="Group 334568">
        <g data-name="Group 334563">
            <path data-name="Path 341353" d="M437.126 143.089a2.948 2.948 0 0 1 3.9.076c.094.081.114.158.224.049a2.941 2.941 0 0 1 4.916 1.531c.073.367.05.22.05 6.813 0 1.927.176 2.428-.524 2.428-3.435 0-1.963 1.06-2.316-8.052-.023-.593-.576-.805-1.142-.68-.5.109-.574.471-.574.938 0 7.738.267 7.838-.6 7.821-3.246-.062-1.96 1.194-2.232-8.041-.019-.638-.626-.846-1.176-.7-.463.119-.54.46-.54.906 0 8.089.263 7.812-.616 7.812-1.91 0-2.21.148-2.207-.651.036-11.053-.217-10.851.475-10.851 2.187-.005 2.321-.166 2.362.601z" transform="translate(-402.236 -140.299)" style="fill:#00bbf2"/>
        </g>
        <g data-name="Group 334564">
            <path data-name="Path 341354" d="M392.772 147.386c0 4.164.075 4.443-.224 5.148a2.762 2.762 0 0 1-2.684 1.708c-3.352 0-3.184.007-3.273-.012-.435-.09-.354-.359-.338-2.385 0-.567.416-.423 2.951-.437.289 0 .77.028.774-.458.009-1.07-2.271.277-3.815-1.306a2.9 2.9 0 0 1-.784-2.157c0-5.1-.331-4.757 1-4.758 1.422 0 1.819-.125 1.821.5.01 4.7-.43 4.48 1.31 4.43.769-.022.289-1.2.438-4.5.025-.549.565-.427 1.354-.428 1.888-.001 1.471-.588 1.47 4.655z" transform="translate(-368.817 -140.519)" style="fill:#1e336a"/>
        </g>
        <g data-name="Group 334565">
            <path data-name="Path 341355" d="M413.834 140.972c-.006-.171.119-.145-1.13-.14-.649 0-.51-.608-.489-2.348.008-.712.63-.306 1.609-.676a3.248 3.248 0 0 0 1.454-1.375c.3-.406.9-.877 1.229-.5.124.142.089.174.09 1.615 0 .609-.178.433 1.081.459.589.012.474.376.475 1.823 0 .53.076.989-.466 1-1.14.019-1.061-.063-1.063.15-.085 10.271.776 8.467-2.268 8.587-1.017.04-.284-1.406-.522-8.595z" transform="translate(-387.152 -135.796)" style="fill:#00bbf2"/>
        </g>
        <g data-name="Group 334566">
            <path data-name="Path 341356" d="M366.084 144.877a2.622 2.622 0 0 0-2.813-2.154c-3.96-.029-3.433-.479-3.424 2.16 0 .645.6.505 1.288.505 1.617 0 2.117-.149 2.154.458.062 1.046-.966.382-2.385.686a2.634 2.634 0 0 0-2.2 2.655c-.012 1.877-.008 2.388.027 2.684a2.533 2.533 0 0 0 2.673 2.29h3.58a1.146 1.146 0 0 0 1.172-1.18c-.035-2.903.068-7.346-.072-8.104zm-2.774 6.275c-.005.574-.561.495-1.273.475-.616-.017-.443-.56-.46-2.069-.006-.583.7-.5 1.322-.46.521.031.425.479.411 2.054z" transform="translate(-350.623 -140.496)" style="fill:#1e336a"/>
        </g>
        <g data-name="Group 334567">
            <path data-name="Path 341357" d="M340.617 145.36a2.507 2.507 0 0 0-1.757-2.473c-.536-.179-.664-.132-5.07-.132-.764 0-.535.082-.535 5.738 0 5.591-.184 5.786.531 5.767 1.626-.043 2.306.212 2.3-.528-.04-3.281-.062-2.887.226-2.887 1.641 0 2.705.171 3.612-.789.869-.918.693-1.642.693-4.696zm-2.83 2.159c0 .644-.614.487-1.589.5-.156 0-.114.021-.114-1.23 0-1.318-.038-1.2.143-1.2 1.761-.006 1.573-.233 1.561 1.929z" transform="translate(-333.224 -140.545)" style="fill:#1e336a"/>
        </g>
    </g>
</svg>
