<svg xmlns="http://www.w3.org/2000/svg" width="22" height="22" viewBox="0 0 22 22">
    <g data-name="Group 334556">
        <g data-name="Group 334553">
            <circle data-name="Ellipse 16467" cx="11" cy="11" style="fill:#5f259f" r="11"/>
        </g>
        <g data-name="Group 334555">
            <g data-name="Group 334554">
                <path data-name="Path 341347" d="M77.618 232.211h-1.5l-3.241-3.819a1.207 1.207 0 0 0-.926-.232l-1.5.579 3.588 3.472H68.59v1.042c.073.334.139.524.463.579h1.042v3.819c1 2.274 2.17 2.808 4.514 1.968v2.2c.189.323.369.537.694.579h1.157c.133-.016.177-.094.232-.232v-8.449h1.621v-.926a.731.731 0 0 0-.695-.58zm-3.01 5.672c-1.478.424-2.071.285-2.546-.81v-3.241h2.546z" transform="translate(-62.511 -225.151)" style="fill:#fff"/>
            </g>
        </g>
    </g>
</svg>
